<?xml version="1.0" encoding="utf-8"?>
<!-- Generator: Adobe Illustrator 17.0.0, SVG Export Plug-In . SVG Version: 6.00 Build 0)  -->
<!DOCTYPE svg PUBLIC "-//W3C//DTD SVG 1.1//EN" "http://www.w3.org/Graphics/SVG/1.1/DTD/svg11.dtd">
<svg version="1.1" id="Слой_1" xmlns="http://www.w3.org/2000/svg" xmlns:xlink="http://www.w3.org/1999/xlink" x="0px" y="0px"
	 width="692.411px" height="692.411px" viewBox="0 0 692.411 692.411" enable-background="new 0 0 692.411 692.411"
	 xml:space="preserve">
<path fill="#E49A44" d="M452.324,444.849c9.722,0.282,16.611,7.825,23.035,14.277c6.165,6.192,12.572,12.037,20.557,15.77
	c11.214,5.236,21.034-11.412,9.752-16.686c-13.151-6.145-21.524-18.067-32.722-25.695c2.011-2.236,3.875-4.787,5.515-7.781
	c5.999-10.929-10.686-20.677-16.682-9.751c-3.103,5.655-7.832,9.116-13.449,11.225c-0.048,0.02-0.096,0.037-0.146,0.057
	c-15.22,5.631-36.951,1.378-51.167,3.406c-0.068,0.014-0.136,0.027-0.204,0.034c10.129-6.227,21.296-11.211,30.918-15.743
	c25.14-11.837,49.772-28.105,57.774-56.26c3.413-12.014-15.229-17.105-18.631-5.137c-3.764,13.242-12.362,22.789-22.977,30.4
	c0.296-11.088-0.569-22.222,7.811-31.098c8.547-9.054-5.093-22.739-13.664-13.665c-6.802,7.203-11.207,15.352-12.742,25.188
	c-1.507,9.647,2.488,21.16-2.515,29.932c-0.445,0.775-0.737,1.548-0.959,2.306c-8.728,4.226-17.585,8.03-25.508,12.058
	c-6.608,3.352-13.12,7.407-19.146,12.065c9.976-30.547,19.02-63.275,45.852-82.168c27.743-19.537,64.248-19.639,89.086-44.624
	c8.792-8.843-4.869-22.507-13.664-13.661c-8.83,8.881-19.558,14.699-30.962,19.473c4.266-7.938,6.349-16.934,7.931-26.212
	c2.075-12.181-16.543-17.4-18.631-5.137c-2.181,12.793-4.342,24.565-15.93,32.094c-23.91,15.543-45.835,31.633-59.956,57.155
	c-5.035,9.101-8.959,18.774-12.49,28.543c-2.566,7.087-10.157,20.837-9.426,28.264c-0.575-5.865-1.398-11.602-1.922-17.253
	c-0.007-0.259-0.034-0.511-0.061-0.773c-0.987-11.184-0.677-22.072,5.308-33.088c15.834-29.156,48.274-45.348,48.967-82.122
	c0.235-12.47-19.088-12.446-19.319,0c-0.401,21.136-15.671,36.134-29.863,51.674c-0.501-2.083-1.185-4.145-2.124-6.165
	c-3.174-6.836-7.907-12.549-10.16-19.823c-2.412-7.798-1.252-16.897-0.739-24.889c0.803-12.447-18.519-12.369-19.318,0
	c-0.902,13.98-0.484,26.631,5.087,39.625c2.47,5.76,6.726,10.133,8.625,16.239c1.794,5.788-0.109,12.828-2.246,19.095
	c-5.981-4.461-13.301-7.696-20.986-9.677c-27.566-7.107-56.444-9.829-69.863-38.992c-5.203-11.306-21.854-1.483-16.685,9.754
	c2.164,4.699,4.851,9.04,7.944,13.031c-1.504-0.084-3.007-0.17-4.512-0.255c-11.001-0.625-17.672-3.215-21.33-14.246
	c-5.063-15.287-4.066-30.302-16.121-42.582c-8.741-8.901-22.395,4.763-13.664,13.665c7.066,7.203,7.761,17.744,9.503,27.22
	c1.789,9.724,5.603,18.499,12.371,25.736c5.557,5.933,14.594,8.264,22.358,8.989c12.161,1.143,24.405,1.586,36.603,2.246
	c2.77,1.453,5.621,2.779,8.544,3.94c10.374,4.117,20.949,6.564,31.912,8.547c9.043,1.64,26.137,4.968,28.996,15.522
	c-11.314-0.902-24.331,4.233-34.543,8.282c-7.941,3.151-16.243,4.92-24.603,5.471c-0.908-0.649-1.96-1.201-3.252-1.54
	c-7.084-1.876-11.364-7.534-16.043-12.794c-5.638-6.332-12.051-11.592-19.04-16.348c-6.948-4.726-15.016-7.891-22.971-10.463
	c-7.818-2.531-17.825-3.95-23.106-10.963c-7.397-9.816-24.188-0.208-16.682,9.754c11.8,15.666,29.714,16.428,46.284,24.464
	c5.75,2.79,10.571,6.859,15.123,11.269c-3.382-1.385-6.693-2.944-9.895-4.723c-10.901-6.053-20.642,10.636-9.751,16.682
	c17.481,9.711,36.474,14.393,56.467,14.106c9.795-0.139,19.656-2.146,28.986-5.008c7.372-2.258,27.397-14.756,34.661-7.229
	c0.286,2.626,0.609,5.267,0.969,7.934c2.164,16.06,2.035,31.885-0.551,47.669c-11.16-12.021-28.73-17.686-44.79-21.804
	c-25.64-6.57-54.245-8.846-75.79-25.746c-9.68-7.598-23.456,5.978-13.66,13.664c8.036,6.306,16.614,11.062,25.603,14.829
	c-8.7,4.066-16.61,6.679-27.502,4.559c-12.171-2.372-17.356,16.246-5.137,18.628c10.588,2.065,20.567,1.862,31.009-0.912
	c5.492-1.46,10.708-4.31,15.509-7.254c6.447-3.954,12.348-4.025,19.69-3.654c1.229,0.061,2.304-0.116,3.291-0.405
	c19.445,4.246,56.286,7.447,62.744,30.197c0.443,1.548,1.14,2.799,2.011,3.8l-4.832,125.687h45.888l-4.832-132.032
	c0-0.766-0.064-1.483-0.146-2.198c0.664-0.687,1.287-1.483,1.79-2.514c4.23-8.633,10.136-13.944,17.071-17.265
	c12.735,3.495,19.438,11.943,28.726,21.913c7.962,8.547,18.754,14.314,30.009,17.008c12.11,2.902,17.247-15.73,5.135-18.632
	c-14.617-3.497-22.32-13.287-31.874-23.963c-0.609-0.678-1.283-1.293-1.933-1.929c11.766-0.443,23.937-0.208,34.8-2.736
	c0.405,0.051,0.78,0.136,1.201,0.15H452.324z"/>
<path fill="#7CBEEA" d="M168.335,375.599c-25.94,0-25.94,40.228,0,40.228C194.273,415.82,194.273,375.599,168.335,375.599z"/>
<path fill="#7CBEEA" d="M152.246,331.35c25.936,0,25.936-40.223,0-40.223C126.302,291.133,126.302,331.35,152.246,331.35z"/>
<path fill="#A8CB72" d="M128.108,339.397c-25.937,0-25.937,40.227,0,40.227C154.048,379.624,154.048,339.397,128.108,339.397z"/>
<path fill="#A8CB72" d="M244.758,248.895c-25.941,0-25.941,40.224,0,40.224C270.695,289.119,270.695,248.895,244.758,248.895z"/>
<path fill="#7CBEEA" d="M162.3,273.029c25.936,0,25.936-40.223,0-40.223C136.359,232.805,136.359,273.029,162.3,273.029z"/>
<path fill="#A8CB72" d="M208.556,240.852c25.937,0,25.937-40.227,0-40.227C182.619,200.625,182.615,240.852,208.556,240.852z"/>
<path fill="#7CBEEA" d="M274.924,202.635c-25.937,0-25.937,40.227,0,40.227C300.868,242.862,300.868,202.635,274.924,202.635z"/>
<path fill="#7CBEEA" d="M295.035,317.274c25.941,0,25.941-40.224,0-40.224C269.099,277.057,269.099,317.274,295.035,317.274z"/>
<path fill="#A8CB72" d="M331.238,258.949c25.94,0,25.94-40.224,0-40.224C305.302,218.725,305.302,258.949,331.238,258.949z"/>
<path fill="#A8CB72" d="M244.758,156.382c-25.941,0-25.941,40.224,0,40.224C270.695,196.606,270.695,156.382,244.758,156.382z"/>
<path fill="#A8CB72" d="M315.148,160.401c-25.937,0-25.937,40.223,0,40.223C341.088,200.625,341.088,160.401,315.148,160.401z"/>
<path fill="#7CBEEA" d="M170.343,198.614c25.936,0,25.936-40.224,0-40.224C144.402,158.39,144.402,198.614,170.343,198.614z"/>
<path fill="#A8CB72" d="M101.96,295.155c25.938,0,25.938-40.228,0-40.228C76.023,254.928,76.023,295.155,101.96,295.155z"/>
<path fill="#A8CB72" d="M118.054,188.56c-25.936,0-25.936,40.223,0,40.223C143.991,228.777,143.991,188.56,118.054,188.56z"/>
<path fill="#7CBEEA" d="M256.826,502.303c25.94,0,25.94-40.224,0-40.224C230.883,462.086,230.883,502.303,256.826,502.303z"/>
<path fill="#A8CB72" d="M186.433,518.396c25.94,0,25.94-40.227,0-40.227C160.493,478.17,160.493,518.396,186.433,518.396z"/>
<path fill="#A8CB72" d="M148.22,474.148c25.94,0,25.94-40.228,0-40.228C122.283,433.921,122.283,474.148,148.22,474.148z"/>
<path fill="#7CBEEA" d="M101.96,435.935c25.938,0,25.938-40.224,0-40.224C76.023,395.711,76.023,435.935,101.96,435.935z"/>
<path fill="#A8CB72" d="M385.542,248.895c25.94,0,25.94-40.227,0-40.227C359.604,208.668,359.604,248.895,385.542,248.895z"/>
<path fill="#A8CB72" d="M77.83,355.487c25.937,0,25.937-40.223,0-40.223C51.89,315.264,51.89,355.487,77.83,355.487z"/>
<path fill="#7CBEEA" d="M369.454,156.382c-25.94,0-25.94,40.224,0,40.224C395.391,196.599,395.391,156.382,369.454,156.382z"/>
<path fill="#A8CB72" d="M280.96,156.382c25.937,0,25.937-40.226,0-40.226C255.02,116.156,255.02,156.382,280.96,156.382z"/>
<path fill="#A8CB72" d="M439.844,174.481c-25.936,0-25.936,40.227,0,40.227C465.785,214.7,465.785,174.481,439.844,174.481z"/>
<path fill="#7CBEEA" d="M429.786,269.007c25.941,0,25.941-40.228,0-40.228C403.85,228.779,403.846,269.007,429.786,269.007z"/>
<path fill="#7CBEEA" d="M492.137,252.916c25.936,0,25.936-40.227,0-40.227C466.2,212.69,466.196,252.916,492.137,252.916z"/>
<path fill="#A8CB72" d="M546.439,331.35c25.938,0,25.938-40.223,0-40.223C520.503,291.133,520.503,331.35,546.439,331.35z"/>
<path fill="#A8CB72" d="M532.364,383.642c25.937,0,25.937-40.223,0-40.223C506.42,343.426,506.42,383.642,532.364,383.642z"/>
<path fill="#7CBEEA" d="M512.248,395.714c-25.936,0-25.936,40.223,0,40.223C538.189,435.932,538.189,395.714,512.248,395.714z"/>
<path fill="#A8CB72" d="M574.595,395.714c-25.936,0-25.936,40.223,0,40.223C600.532,435.932,600.532,395.714,574.595,395.714z"/>
<path fill="#A8CB72" d="M543.075,494.26c25.936,0,25.936-40.224,0-40.224C517.135,454.036,517.135,494.26,543.075,494.26z"/>
<path fill="#7CBEEA" d="M492.793,538.505c25.938,0,25.938-40.227,0-40.227C466.856,498.289,466.856,538.505,492.793,538.505z"/>
<path fill="#7CBEEA" d="M550.459,266.993c25.94,0,25.94-40.224,0-40.224C524.521,226.769,524.521,266.993,550.459,266.993z"/>
<path fill="#A8CB72" d="M490.126,150.347c-25.94,0-25.94,40.223,0,40.223C516.062,190.57,516.062,150.347,490.126,150.347z"/>
<path fill="#7CBEEA" d="M425.768,114.144c-25.94,0-25.94,40.224,0,40.224C451.706,154.368,451.706,114.144,425.768,114.144z"/>
<path fill="#A8CB72" d="M357.385,94.029c-25.936,0-25.936,40.228,0,40.228C383.323,134.256,383.327,94.029,357.385,94.029z"/>
<path fill="#7CBEEA" d="M208.556,102.076c-25.937,0-25.937,40.227,0,40.227C234.493,142.303,234.493,102.076,208.556,102.076z"/>
<path fill="#7CBEEA" d="M550.459,204.649c25.94,0,25.94-40.226,0-40.226C524.521,164.423,524.521,204.649,550.459,204.649z"/>
<path fill="none" stroke="#E49A44" stroke-width="2.0333" d="M691.395,346.205c0,91.551-36.369,179.351-101.104,244.086
	c-64.735,64.735-152.535,101.104-244.086,101.104c-91.549,0-179.35-36.369-244.085-101.104
	C37.385,525.556,1.017,437.756,1.017,346.205c0-91.549,36.369-179.35,101.104-244.084C166.855,37.385,254.656,1.017,346.205,1.017
	c91.55,0,179.351,36.369,244.086,101.104C655.025,166.855,691.395,254.656,691.395,346.205z"/>
</svg>
